<svg width="141" height="101" viewBox="0 0 141 101" fill="none" xmlns="http://www.w3.org/2000/svg">
<g clip-path="url(#clip0_5_4)">
<path d="M89.9301 17.28V22.54H101.73V39.87H89.9301V44.47H119.93V61.76H72.65V0H119.92V17.28H89.9301ZM70.71 0H23.39V31.3L51.65 44.46H23.39V61.74H70.71V34.31L34.21 17.31H70.71V0Z" fill="#004777"/>
<path d="M9.15936 91.678C7.3602 91.678 5.84273 91.3963 4.60694 90.8329C3.37115 90.2514 2.43523 89.4699 1.79916 88.4886C1.16309 87.489 0.84506 86.3441 0.84506 85.0538H5.1794C5.1794 85.5626 5.3157 86.0352 5.5883 86.4713C5.87907 86.9075 6.31523 87.2619 6.89678 87.5345C7.47833 87.7889 8.23252 87.9161 9.15936 87.9161C9.99533 87.9161 10.695 87.8071 11.2584 87.589C11.8218 87.3709 12.2488 87.071 12.5396 86.6894C12.8304 86.2896 12.9758 85.8352 12.9758 85.3264C12.9758 84.6903 12.7032 84.1906 12.158 83.8271C11.6128 83.4455 10.7314 83.2001 9.51374 83.0911L8.01444 82.9548C6.03355 82.7912 4.45247 82.1733 3.2712 81.1011C2.08993 80.0289 1.4993 78.6113 1.4993 76.8485C1.4993 75.5764 1.79916 74.4769 2.39888 73.5501C3.01677 72.6232 3.87092 71.9145 4.96132 71.4238C6.05172 70.9149 7.34203 70.6605 8.83224 70.6605C10.3951 70.6605 11.7309 70.9331 12.8395 71.4783C13.9662 72.0053 14.8294 72.7595 15.4292 73.7409C16.0289 74.7041 16.3287 75.8399 16.3287 77.1484H11.9671C11.9671 76.6577 11.849 76.2125 11.6128 75.8127C11.3765 75.3947 11.0221 75.0585 10.5496 74.804C10.0953 74.5496 9.52283 74.4224 8.83224 74.4224C8.178 74.4224 7.62371 74.5314 7.16938 74.7495C6.73322 74.9676 6.4061 75.2675 6.18802 75.6491C5.96994 76.0126 5.8609 76.4124 5.8609 76.8485C5.8609 77.4119 6.06081 77.9026 6.46062 78.3206C6.86043 78.7386 7.51467 78.9839 8.42334 79.0566L9.9499 79.1929C11.4038 79.3201 12.685 79.6381 13.7936 80.147C14.9021 80.6377 15.7654 81.3192 16.3833 82.1915C17.0193 83.0456 17.3374 84.0906 17.3374 85.3264C17.3374 86.5985 17.0012 87.7162 16.3287 88.6794C15.6745 89.6244 14.7386 90.3604 13.521 90.8874C12.3033 91.4145 10.8495 91.678 9.15936 91.678ZM20.1722 91.16V76.2216H23.6342V82.6549H23.3889C23.3889 81.1284 23.5797 79.8562 23.9613 78.8385C24.343 77.8208 24.9154 77.0575 25.6787 76.5487C26.442 76.0216 27.3779 75.7581 28.4865 75.7581H28.6773C29.8041 75.7581 30.74 76.0216 31.4851 76.5487C32.2484 77.0575 32.8208 77.8208 33.2025 78.8385C33.6023 79.8562 33.8022 81.1284 33.8022 82.6549H32.739C32.739 81.1284 32.9299 79.8562 33.3115 78.8385C33.7113 77.8208 34.2929 77.0575 35.0561 76.5487C35.8194 76.0216 36.7554 75.7581 37.8639 75.7581H38.0547C39.1815 75.7581 40.1265 76.0216 40.8898 76.5487C41.6712 77.0575 42.2619 77.8208 42.6617 78.8385C43.0615 79.8562 43.2614 81.1284 43.2614 82.6549V91.16H38.8998V82.4096C38.8998 81.5918 38.6817 80.9284 38.2456 80.4196C37.8276 79.9107 37.2279 79.6563 36.4464 79.6563C35.665 79.6563 35.0471 79.9198 34.5927 80.4469C34.1384 80.9557 33.9112 81.6372 33.9112 82.4914V91.16H29.5224V82.4096C29.5224 81.5918 29.3043 80.9284 28.8681 80.4196C28.4501 79.9107 27.8595 79.6563 27.0962 79.6563C26.2966 79.6563 25.6696 79.9198 25.2153 80.4469C24.761 80.9557 24.5338 81.6372 24.5338 82.4914V91.16H20.1722ZM56.0027 91.16V86.7439H55.2667V81.9462C55.2667 81.1829 55.0849 80.6104 54.7215 80.2288C54.358 79.8471 53.7765 79.6563 52.9768 79.6563C52.577 79.6563 52.05 79.6654 51.3957 79.6836C50.7415 79.7017 50.0691 79.729 49.3785 79.7654C48.6879 79.8017 48.0609 79.838 47.4976 79.8744V76.1943C47.9156 76.1579 48.4062 76.1216 48.9696 76.0853C49.533 76.0489 50.1145 76.0216 50.7142 76.0035C51.314 75.9853 51.8773 75.9762 52.4044 75.9762C53.9309 75.9762 55.2121 76.1943 56.248 76.6305C57.3021 77.0666 58.1017 77.7299 58.6469 78.6204C59.1921 79.4928 59.4647 80.6195 59.4647 82.0007V91.16H56.0027ZM51.2322 91.5417C50.16 91.5417 49.2149 91.3509 48.3971 90.9692C47.5975 90.5876 46.9705 90.0424 46.5162 89.3336C46.0619 88.6067 45.8347 87.7434 45.8347 86.7439C45.8347 85.6535 46.1164 84.763 46.6798 84.0724C47.2431 83.3637 48.0337 82.8457 49.0514 82.5186C50.0691 82.1733 51.2413 82.0007 52.5679 82.0007H55.7573V84.4268H52.5407C51.7774 84.4268 51.1868 84.6176 50.7688 84.9993C50.369 85.3627 50.169 85.8625 50.169 86.4986C50.169 87.0983 50.369 87.589 50.7688 87.9706C51.1868 88.3341 51.7774 88.5158 52.5407 88.5158C53.0313 88.5158 53.4675 88.434 53.8491 88.2705C54.249 88.0887 54.5761 87.7889 54.8305 87.3709C55.0849 86.9529 55.2303 86.3714 55.2667 85.6263L56.3025 86.7167C56.2117 87.7525 55.9573 88.6249 55.5393 89.3336C55.1395 90.0424 54.5761 90.5876 53.8491 90.9692C53.1404 91.3509 52.2681 91.5417 51.2322 91.5417ZM63.1653 91.16V76.2216H66.6273V82.6277H66.5455C66.5455 80.5195 66.9907 78.893 67.8812 77.7481C68.7899 76.6032 70.0984 76.0307 71.8067 76.0307H72.3791V79.7926H71.2887C70.0893 79.7926 69.1625 80.1197 68.5082 80.774C67.854 81.41 67.5269 82.3369 67.5269 83.5545V91.16H63.1653ZM81.7728 91.3509C80.2644 91.3509 79.0468 91.1691 78.1199 90.8057C77.1931 90.424 76.5116 89.797 76.0754 88.9247C75.6574 88.0342 75.4484 86.8348 75.4484 85.3264V72.1871H79.5102V85.49C79.5102 86.1987 79.6919 86.7439 80.0554 87.1256C80.437 87.489 80.9731 87.6708 81.6637 87.6708H83.8718V91.3509H81.7728ZM73.1859 79.411V76.2216H83.8718V79.411H73.1859ZM87.0501 91.16V71.2602H91.4117V91.16H87.0501ZM90.8665 91.16V87.4527H99.5625V91.16H90.8665ZM90.8665 82.9003V79.1929H98.9355V82.9003H90.8665ZM90.8665 74.9676V71.2602H99.3716V74.9676H90.8665ZM108.778 91.6507C107.724 91.6507 106.761 91.4599 105.889 91.0783C105.035 90.6966 104.29 90.1696 103.654 89.4972C103.018 88.8066 102.527 87.9979 102.182 87.071C101.854 86.1442 101.691 85.1447 101.691 84.0724V83.4455C101.691 82.3732 101.845 81.3737 102.154 80.4469C102.481 79.52 102.945 78.7113 103.545 78.0207C104.162 77.312 104.898 76.7668 105.753 76.3851C106.607 75.9853 107.561 75.7854 108.615 75.7854C109.814 75.7854 110.85 76.0489 111.723 76.5759C112.595 77.0848 113.276 77.8481 113.767 78.8658C114.258 79.8653 114.53 81.1011 114.585 82.5731L113.44 81.51V71.2602H117.829V91.16H114.367V84.972H114.966C114.912 86.3895 114.612 87.5981 114.067 88.5976C113.54 89.5971 112.822 90.3604 111.913 90.8874C111.005 91.3963 109.96 91.6507 108.778 91.6507ZM109.869 87.9979C110.541 87.9979 111.15 87.8525 111.695 87.5617C112.259 87.2528 112.704 86.8075 113.031 86.226C113.376 85.6444 113.549 84.9448 113.549 84.127V83.1183C113.549 82.3187 113.376 81.6463 113.031 81.1011C112.686 80.5559 112.231 80.1379 111.668 79.8471C111.105 79.5564 110.496 79.411 109.842 79.411C109.115 79.411 108.46 79.6018 107.879 79.9834C107.316 80.3469 106.87 80.8558 106.543 81.51C106.216 82.1461 106.052 82.8912 106.052 83.7453C106.052 84.6176 106.216 85.3718 106.543 86.0079C106.87 86.644 107.325 87.1346 107.906 87.4799C108.488 87.8252 109.142 87.9979 109.869 87.9979ZM122.494 91.16V76.2216H126.855V91.16H122.494ZM120.504 79.4382V76.2216H126.855V79.4382H120.504ZM124.184 74.7495C123.366 74.7495 122.757 74.5405 122.357 74.1225C121.976 73.6864 121.785 73.1412 121.785 72.4869C121.785 71.8145 121.976 71.2693 122.357 70.8513C122.757 70.4152 123.366 70.1971 124.184 70.1971C125.002 70.1971 125.601 70.4152 125.983 70.8513C126.383 71.2693 126.583 71.8145 126.583 72.4869C126.583 73.1412 126.383 73.6864 125.983 74.1225C125.601 74.5405 125.002 74.7495 124.184 74.7495ZM137.677 91.3509C136.169 91.3509 134.951 91.1691 134.024 90.8057C133.097 90.424 132.416 89.797 131.98 88.9247C131.562 88.0342 131.353 86.8348 131.353 85.3264V72.1871H135.414V85.49C135.414 86.1987 135.596 86.7439 135.96 87.1256C136.341 87.489 136.877 87.6708 137.568 87.6708H139.776V91.3509H137.677ZM129.09 79.411V76.2216H139.776V79.411H129.09Z" fill="#004777"/>
</g>
<defs>
<clipPath id="clip0_5_4">
<rect width="140.76" height="100.16" fill="white"/>
</clipPath>
</defs>
</svg>
